<svg xmlns="http://www.w3.org/2000/svg" version="1.1" xmlns:xlink="http://www.w3.org/1999/xlink" viewBox="0 0 200 200"><rect width="200" height="200" fill="url('#gradient')"></rect><defs><linearGradient id="gradient" gradientTransform="rotate(45 0.5 0.5)"><stop offset="0%" stop-color="#198754"></stop><stop offset="100%" stop-color="#198754"></stop></linearGradient></defs><g><g fill="#ffffff" transform="matrix(7.453295592397898,0,0,7.453295592397898,2.1383468593800927,152.99230752355697)" stroke="#0e5278" stroke-width="0.2"><path d="M9.12 0L6.10-5.63L4.48-5.63L4.48 0L1.05 0L1.05-14.22L4.48-14.22L4.48-8.72L5.80-8.72L8.54-14.22L12.69-14.22L8.78-7.66L13.17 0L9.12 0ZM19.63-4.82L17.44-4.82L17.44 0L14.01 0L14.01-14.22L19.69-14.22Q21.32-14.22 22.57-13.62Q23.83-13.02 24.52-11.91Q25.21-10.80 25.21-9.39L25.21-9.39Q25.21-7.31 23.72-6.07Q22.23-4.82 19.63-4.82L19.63-4.82ZM17.44-11.57L17.44-7.47L19.69-7.47Q20.68-7.47 21.21-7.97Q21.73-8.47 21.73-9.38L21.73-9.38Q21.73-10.37 21.19-10.97Q20.65-11.56 19.73-11.57L19.73-11.57L17.44-11.57Z"></path></g></g></svg>